# xmcd
#
# Track frame offsets:
#	150
#	11434
#	63987
#	98378
#	136801
#	167391
#	204149
#
# Disc length: 3220 seconds
#
# Revision: 0
# Processed by: cddbd v1.5.2PL0 Copyright (c) Steve Scherf et al.
# Submitted via: audiograbber 1.83.01
#
DISCID=430c9207
DTITLE=Grateful Dead - 94-04-07 Miami Arena, Miami FL
DYEAR=1900
DGENRE=
TTITLE0=Tuning
TTITLE1=Shakedown Street
TTITLE2=Walking Blues
TTITLE3=Friend Of The Devil
TTITLE4=Queen Jane Approximately
TTITLE5=Ramble On Rose
TTITLE6=The Music Never Stopped
EXTD=
EXTT0=
EXTT1=
EXTT2=
EXTT3=
EXTT4=
EXTT5=
EXTT6=
PLAYORDER=
